<svg xmlns="http://www.w3.org/2000/svg" xmlns:xlink="http://www.w3.org/1999/xlink" width="180" zoomAndPan="magnify" viewBox="0 0 135 36.000001" height="48" preserveAspectRatio="xMidYMid meet" version="1.0"><defs><g/><clipPath id="459b758d34"><path d="M 3.050781 0.273438 L 32.847656 0.273438 L 32.847656 34.488281 L 3.050781 34.488281 Z M 3.050781 0.273438 " clip-rule="nonzero"/></clipPath></defs><g fill="#0369a1" fill-opacity="1"><g transform="translate(37.37885, 21.937988)"><g><path d="M 8.8125 -1.828125 L 8.8125 0 L 1.171875 0 L 1.171875 -9.859375 L 8.625 -9.859375 L 8.625 -8.03125 L 3.4375 -8.03125 L 3.4375 -5.890625 L 8.015625 -5.890625 L 8.015625 -4.109375 L 3.4375 -4.109375 L 3.4375 -1.828125 Z M 8.8125 -1.828125 "/></g></g></g><g fill="#0369a1" fill-opacity="1"><g transform="translate(51.061116, 21.937988)"><g><path d="M 1.171875 -9.859375 L 3.453125 -9.859375 L 3.453125 -1.859375 L 8.40625 -1.859375 L 8.40625 0 L 1.171875 0 Z M 1.171875 -9.859375 "/></g></g></g><g fill="#0369a1" fill-opacity="1"><g transform="translate(63.799468, 21.937988)"><g><path d="M 8.8125 -1.828125 L 8.8125 0 L 1.171875 0 L 1.171875 -9.859375 L 8.625 -9.859375 L 8.625 -8.03125 L 3.4375 -8.03125 L 3.4375 -5.890625 L 8.015625 -5.890625 L 8.015625 -4.109375 L 3.4375 -4.109375 L 3.4375 -1.828125 Z M 8.8125 -1.828125 "/></g></g></g><g fill="#0369a1" fill-opacity="1"><g transform="translate(77.481735, 21.937988)"><g><path d="M 7.84375 -5.09375 L 9.921875 -5.09375 L 9.921875 -1.078125 C 9.390625 -0.679688 8.769531 -0.375 8.0625 -0.15625 C 7.351562 0.0625 6.644531 0.171875 5.9375 0.171875 C 4.90625 0.171875 3.976562 -0.046875 3.15625 -0.484375 C 2.34375 -0.921875 1.703125 -1.523438 1.234375 -2.296875 C 0.773438 -3.078125 0.546875 -3.957031 0.546875 -4.9375 C 0.546875 -5.914062 0.773438 -6.789062 1.234375 -7.5625 C 1.703125 -8.332031 2.347656 -8.9375 3.171875 -9.375 C 4.003906 -9.8125 4.9375 -10.03125 5.96875 -10.03125 C 6.832031 -10.03125 7.617188 -9.882812 8.328125 -9.59375 C 9.035156 -9.300781 9.628906 -8.878906 10.109375 -8.328125 L 8.640625 -6.96875 C 7.929688 -7.71875 7.082031 -8.09375 6.09375 -8.09375 C 5.457031 -8.09375 4.894531 -7.957031 4.40625 -7.6875 C 3.914062 -7.425781 3.535156 -7.054688 3.265625 -6.578125 C 2.992188 -6.097656 2.859375 -5.550781 2.859375 -4.9375 C 2.859375 -4.320312 2.992188 -3.773438 3.265625 -3.296875 C 3.535156 -2.816406 3.910156 -2.441406 4.390625 -2.171875 C 4.878906 -1.910156 5.4375 -1.78125 6.0625 -1.78125 C 6.71875 -1.78125 7.3125 -1.921875 7.84375 -2.203125 Z M 7.84375 -5.09375 "/></g></g></g><g fill="#0369a1" fill-opacity="1"><g transform="translate(92.572823, 21.937988)"><g><path d="M 7.671875 -2.109375 L 3.09375 -2.109375 L 2.21875 0 L -0.125 0 L 4.265625 -9.859375 L 6.53125 -9.859375 L 10.9375 0 L 8.546875 0 Z M 6.953125 -3.84375 L 5.390625 -7.625 L 3.8125 -3.84375 Z M 6.953125 -3.84375 "/></g></g></g><g fill="#0369a1" fill-opacity="1"><g transform="translate(107.593467, 21.937988)"><g><path d="M 10.21875 -9.859375 L 10.21875 0 L 8.34375 0 L 3.421875 -5.984375 L 3.421875 0 L 1.171875 0 L 1.171875 -9.859375 L 3.0625 -9.859375 L 7.96875 -3.875 L 7.96875 -9.859375 Z M 10.21875 -9.859375 "/></g></g></g><g fill="#0369a1" fill-opacity="1"><g transform="translate(123.205822, 21.937988)"><g><path d="M 3.21875 -8 L 0.0625 -8 L 0.0625 -9.859375 L 8.65625 -9.859375 L 8.65625 -8 L 5.5 -8 L 5.5 0 L 3.21875 0 Z M 3.21875 -8 "/></g></g></g><g clip-path="url(#459b758d34)"><path fill="#0369a1" d="M 24.417969 6.371094 L 18.023438 2.671875 L 5.226562 10.066406 L 5.226562 24.855469 L 18.023438 32.25 L 30.8125 24.855469 L 30.8125 10.066406 Z M 26.070312 18.558594 L 23.582031 18.558594 C 22.972656 18.558594 22.488281 18.070312 22.488281 17.460938 C 22.488281 16.867188 22.972656 16.367188 23.582031 16.367188 L 28.246094 16.367188 L 28.246094 22.742188 C 28.246094 23.179688 27.984375 23.5625 27.601562 23.742188 L 20.558594 27.800781 C 20.035156 28.09375 19.367188 27.917969 19.070312 27.410156 C 18.976562 27.230469 18.925781 27.054688 18.925781 26.863281 L 18.914062 26.863281 L 18.914062 8.0625 C 18.914062 7.453125 19.398438 6.964844 20.007812 6.964844 C 20.25 6.964844 20.460938 7.046875 20.640625 7.171875 L 27.699219 11.246094 C 28.039062 11.449219 28.246094 11.8125 28.246094 12.183594 L 28.246094 14.191406 L 26.070312 14.191406 L 26.070312 12.8125 L 22.050781 10.484375 L 21.097656 9.9375 L 21.097656 24.980469 L 26.070312 22.117188 Z M 9.980469 18.558594 L 12.464844 18.558594 C 13.058594 18.558594 13.546875 18.070312 13.546875 17.460938 C 13.546875 16.867188 13.058594 16.367188 12.464844 16.367188 L 7.789062 16.367188 L 7.789062 22.742188 C 7.789062 23.179688 8.046875 23.5625 8.433594 23.742188 L 15.492188 27.800781 C 16.011719 28.09375 16.667969 27.917969 16.960938 27.410156 C 17.070312 27.230469 17.121094 27.054688 17.121094 26.863281 L 17.121094 8.0625 C 17.121094 7.453125 16.632812 6.964844 16.023438 6.964844 C 15.785156 6.964844 15.574219 7.046875 15.394531 7.171875 L 8.335938 11.246094 C 7.992188 11.449219 7.800781 11.8125 7.800781 12.183594 L 7.789062 12.183594 L 7.789062 14.191406 L 9.972656 14.191406 L 9.972656 12.8125 L 13.992188 10.484375 L 14.941406 9.9375 L 14.941406 24.980469 L 9.980469 22.117188 Z M 18.570312 0.503906 L 32.449219 8.5 C 32.792969 8.707031 32.984375 9.070312 32.984375 9.453125 L 32.996094 9.453125 L 32.996094 25.480469 C 32.996094 25.917969 32.738281 26.300781 32.351562 26.464844 L 18.558594 34.433594 C 18.214844 34.640625 17.785156 34.625 17.460938 34.433594 L 3.597656 26.425781 C 3.242188 26.21875 3.050781 25.855469 3.050781 25.484375 L 3.050781 9.453125 C 3.050781 9 3.3125 8.628906 3.679688 8.453125 L 17.476562 0.488281 C 17.832031 0.292969 18.25 0.304688 18.570312 0.503906 Z M 18.570312 0.503906 " fill-opacity="1" fill-rule="nonzero"/></g></svg>
